<svg width="609" height="609" viewBox="0 0 609 609" fill="none" xmlns="http://www.w3.org/2000/svg">
<path d="M36.8894 398.095C4.12446 342.861 -7.35011 277.566 4.62038 214.471C16.5909 151.376 51.183 94.8202 101.901 55.4249C152.619 16.0295 215.974 -3.496 280.07 0.514929C344.165 4.52585 404.592 31.7972 450.003 77.2081C495.414 122.619 522.686 183.046 526.697 247.141C530.708 311.237 511.183 374.592 471.788 425.31C432.393 476.028 375.838 510.621 312.742 522.591C249.647 534.562 184.352 523.088 129.118 490.323L129.119 490.32L38.036 516.344C34.2677 517.421 30.2799 517.47 26.486 516.487C22.6922 515.504 19.2302 513.524 16.4589 510.753C13.6876 507.982 11.7079 504.52 10.7248 500.726C9.74171 496.932 9.79109 492.944 10.8678 489.176L36.8914 398.093L36.8894 398.095Z" fill="#707AF3"/>
<path d="M522.086 564.252C487.644 588.443 445.555 599.228 403.724 594.583C361.892 589.937 323.195 570.181 294.899 539.023C266.603 507.865 250.655 467.449 250.049 425.365C249.443 383.28 264.221 342.422 291.608 310.463C318.995 278.503 357.107 257.64 398.788 251.792C440.468 245.944 482.85 255.513 517.975 278.702C553.099 301.891 578.55 337.105 589.549 377.731C600.548 418.357 596.338 461.602 577.709 499.343L577.707 499.343L599.297 557.55C600.19 559.958 600.423 562.561 599.972 565.09C599.521 567.618 598.401 569.98 596.73 571.93C595.059 573.881 592.896 575.349 590.467 576.182C588.037 577.016 585.429 577.184 582.912 576.67L522.085 564.251L522.086 564.252Z" fill="#E680FF"/>
<path fill-rule="evenodd" clip-rule="evenodd" d="M526.373 284.63C522.298 335.574 503.468 384.532 471.787 425.317C432.392 476.036 375.837 510.628 312.742 522.599C303.35 524.381 293.91 525.643 284.461 526.393C262.7 497.311 250.571 461.976 250.044 425.379C249.438 383.295 264.216 342.437 291.603 310.477C318.99 278.517 357.102 257.655 398.782 251.807C440.463 245.959 482.845 255.528 517.969 278.717C520.836 280.609 523.638 282.581 526.373 284.63Z" fill="#5627B9"/>
</svg>
